<?xml version="1.0" encoding="utf-8"?>
<!-- Generator: Adobe Illustrator 16.0.0, SVG Export Plug-In . SVG Version: 6.00 Build 0)  -->
<!DOCTYPE svg PUBLIC "-//W3C//DTD SVG 1.1//EN" "http://www.w3.org/Graphics/SVG/1.1/DTD/svg11.dtd">
<svg version="1.1" id="Layer_1" xmlns="http://www.w3.org/2000/svg" xmlns:xlink="http://www.w3.org/1999/xlink" x="0px" y="0px"
	 width="1000px" height="885.989px" viewBox="0 0 1000 885.989" enable-background="new 0 0 1000 885.989" xml:space="preserve">
<g>
	<g>
		<defs>
			<path id="SVGID_1_" d="M116.251,0v881.684h878.511V590.66c3.506-5.025,5.238-11.53,5.238-19.398
				c0-8.979-1.732-14.588-5.238-19.28V0H116.251z"/>
		</defs>
		<clipPath id="SVGID_2_">
			<use xlink:href="#SVGID_1_"  overflow="visible"/>
		</clipPath>
		
			<radialGradient id="SVGID_3_" cx="195.8862" cy="842.0942" r="19.9429" gradientTransform="matrix(52.5209 0 0 -52.5209 -10024.5664 44378.8633)" gradientUnits="userSpaceOnUse">
			<stop  offset="0" style="stop-color:#86D4F7"/>
			<stop  offset="0.0754" style="stop-color:#7FCFF4"/>
			<stop  offset="0.1814" style="stop-color:#6BC4EE"/>
			<stop  offset="0.305" style="stop-color:#43B3E6"/>
			<stop  offset="0.3708" style="stop-color:#19A9E1"/>
			<stop  offset="0.4361" style="stop-color:#139FDA"/>
			<stop  offset="0.5634" style="stop-color:#0E90D0"/>
			<stop  offset="0.6964" style="stop-color:#0C86C8"/>
			<stop  offset="0.8374" style="stop-color:#0A80C4"/>
			<stop  offset="1" style="stop-color:#0A7EC2"/>
		</radialGradient>
		<rect x="116.251" clip-path="url(#SVGID_2_)" fill="url(#SVGID_3_)" width="883.749" height="881.684"/>
	</g>
	<path fill="#FFFFFF" d="M116.261,446.402h42.184l9.534-23.04h21.277l9.475,23.04h83.015v-17.586l7.439,17.625h43.061l7.401-17.8
		v17.761h206.295l-0.116-37.666h3.992c2.845,0.04,3.663,0.389,3.663,4.967v32.699H660.11V437.6
		c8.607,4.635,22.046,8.802,39.594,8.802h44.911l9.62-23.04h21.327l9.405,23.04h86.474V424.57l13.088,21.832h69.255V302.283H885.23
		v17.061l-9.584-17.061h-70.404v17.061l-8.783-17.061h-95.081c-15.911,0-29.972,2.2-41.268,8.413v-8.413h-65.536v8.413
		c-7.266-6.407-17.061-8.413-27.91-8.413H326.958L310.803,339.5l-16.428-37.217h-75.507v17.061l-8.355-17.061h-64.377
		l-29.875,68.457V446.402z M931.814,426.031h-34.998l-46.779-77.436l0.039,77.436h-50.308l-9.581-23.021h-51.396l-9.212,23.021
		h-28.92c-12.076,0-27.267-2.669-35.777-11.375c-8.805-8.842-13.225-20.645-13.225-39.497c0-15.327,2.727-29.292,13.322-40.315
		c7.984-8.276,20.487-12.095,37.49-12.095h23.838v22.125h-23.313c-9.017,0-14.178,1.382-19.087,6.153
		c-4.147,4.363-7.068,12.582-7.068,23.429c0,11.102,2.161,18.97,6.836,24.248c3.738,4.031,10.673,5.298,17.158,5.298h11.12
		l34.764-81.253h37.004l41.775,97.71v-97.71h37.667l43.43,71.924V322.75h25.221V426.031z M639.563,426.031H614.38v-103.3h25.184
		V426.031z M600.046,350.659c0,16.321-10.983,24.949-17.371,27.481c5.394,2.084,9.99,5.648,12.132,8.745
		c3.507,5.024,4.149,9.757,4.149,18.833v20.313h-24.891l-0.097-12.991c0-6.134,0.622-15.094-3.954-20.02
		c-3.622-3.701-9.018-4.46-17.956-4.46h-26.565v37.471h-24.627V322.75h56.82c12.544,0,21.872,0.429,29.876,5.006
		C595.393,332.352,600.046,339.091,600.046,350.659 M483.708,426.031h-82.479V322.75h82.479v21.58h-57.735v18.541h56.343V384.1
		l-56.343-0.059v20.625h57.735V426.031z M382.863,426.031h-25.289l-0.136-80.766l-35.787,80.766h-21.677l-35.932-80.961v80.961
		h-50.237l-9.437-23.021h-51.435l-9.534,23.021h-26.858l44.152-103.281h36.731l41.979,97.846V322.75h40.374l32.261,70.133
		l29.719-70.133h41.104V426.031z M781.716,381.49l-17.1-41.133l-16.943,41.133H781.716z M567.736,365.189
		c-3.369,1.89-7.381,2.103-12.212,2.103h-30.031V344.33h30.423c4.341,0,8.841,0.137,11.781,1.792
		c3.175,1.558,5.122,4.771,5.122,9.115C572.819,359.774,570.93,363.377,567.736,365.189 M195.458,381.49l-16.895-41.133
		l-16.836,41.133H195.458z"/>
	<path fill="#FFFFFF" d="M594.807,534.627c0,28.648-21.363,34.628-42.982,34.628h-30.8v34.647h-47.92l-30.45-34.161l-31.59,34.161
		h-97.787V500.564h99.315l30.354,33.829l31.394-33.829h78.887C572.839,500.564,594.807,505.999,594.807,534.627 M398.551,582.343
		h-60.725v-20.548h54.211v-21.072h-54.211v-18.735h61.903l26.984,30.052L398.551,582.343z M496.417,594.514l-37.851-42.087
		l37.851-40.724V594.514z M552.974,548.221h-31.949v-26.233h32.203c8.938,0,15.113,3.563,15.113,12.64
		C568.341,543.566,562.459,548.221,552.974,548.221 M719.55,500.564h82.44v21.424h-57.843v18.735h56.4v21.072h-56.4v20.548
		l57.843,0.097v21.463h-82.44V500.564z M688.329,555.856c5.492,2.006,9.993,5.668,12.096,8.705c3.467,5.084,4.051,9.759,4.09,18.871
		v20.471h-24.754v-12.95c0-6.214,0.564-15.387-4.012-20.158c-3.583-3.799-9.076-4.655-18.053-4.655h-26.469v37.764h-24.753V500.564
		h56.966c12.543,0,21.656,0.527,29.74,4.927c7.75,4.636,12.618,11.181,12.618,22.942
		C705.799,544.873,694.835,553.286,688.329,555.856 M673.393,543.06c-3.252,1.909-7.363,2.103-12.135,2.103h-30.03v-23.175h30.461
		c4.341,0,8.783,0.058,11.704,1.81c3.213,1.696,5.122,4.871,5.122,9.33C678.515,537.509,676.605,541.093,673.393,543.06
		 M896.214,549.371c4.868,5.025,7.401,11.334,7.401,21.871c0,22.28-13.905,32.661-38.777,32.661h-48.104v-22.184h47.931
		c4.732,0,7.984-0.603,10.087-2.551c1.655-1.558,2.921-3.856,2.921-6.719c0-3.02-1.304-5.454-3.075-6.816
		c-1.852-1.636-4.44-2.299-8.745-2.357c-23.078-0.759-52.02,0.722-52.02-31.997c0-14.958,9.427-30.715,35.31-30.715h49.487v21.989
		h-45.243c-4.557,0-7.459,0.194-9.952,1.85c-2.686,1.693-3.68,4.207-3.68,7.479c0,3.854,2.298,6.523,5.415,7.673
		c2.569,0.896,5.335,1.169,9.543,1.208l13.32,0.331C881.471,541.483,890.604,543.762,896.214,549.371 M994.78,590.66
		c-6.075,8.86-17.762,13.243-33.558,13.243h-47.696v-22.184h47.503c4.675,0,7.984-0.603,9.971-2.551
		c1.694-1.558,2.979-3.856,2.979-6.719c0-3.02-1.285-5.454-3.018-6.816c-1.851-1.636-4.421-2.299-8.687-2.357
		c-23.176-0.759-52.098,0.722-52.098-31.997c0-14.958,9.504-30.715,35.368-30.715h49.234v-20.548h-45.748
		c-13.828,0-23.819,3.293-30.947,8.435v-8.435h-67.581c-10.75,0-23.43,2.708-29.485,8.435l0.038-8.435h-120.75v8.435
		c-9.602-6.856-25.765-8.435-33.321-8.435h-79.539v8.435c-7.653-7.343-24.481-8.435-34.783-8.435h-89.131l-20.382,22.125
		l-19.067-22.125H290.899v144.199h130.653l20.995-22.416l19.826,22.416l80.436,0.039v-33.926h7.965
		c10.635,0.154,23.292-0.235,34.394-5.026v38.913h66.412v-37.608h3.175c4.108,0,4.498,0.234,4.498,4.246v33.362h201.729
		c12.756,0,26.156-3.291,33.538-9.23v9.23h64.036c13.302,0,26.292-1.851,36.225-6.642V590.66z M994.78,522.553h-45.106
		c-4.46,0-7.479,0.194-9.913,1.85c-2.608,1.693-3.622,4.207-3.622,7.479c0,3.854,2.182,6.523,5.434,7.673
		c2.553,0.896,5.355,1.169,9.505,1.208l13.34,0.331c13.478,0.39,22.515,2.669,28.065,8.277c0.896,0.818,1.577,1.752,2.298,2.61
		V522.553z"/>
	<path fill="#0A7EC2" d="M60.034,863.474h-7.702c-0.994-3.057-1.14-8.842-1.14-10.243c0-2.864-0.477-5.728-5.736-5.728H34.103
		l0.039,15.971h-6.797v-38.991h18.112c6.232,0,13.098,2.222,13.098,10.889c0,4.868-2.075,7.264-4.168,8.783
		c1.752,0.992,3.252,2.708,3.467,7.07l0.302,6.758c0.117,1.946,0.262,2.336,1.879,3.252V863.474z M51.611,835.877
		c0-4.927-3.35-5.336-5.824-5.336H34.103v10.906h10.828C48.504,841.448,51.611,840.59,51.611,835.877 M83.688,844.407
		c0-23.078-18.735-41.579-41.843-41.579C18.726,802.828,0,821.329,0,844.407c0,23.06,18.726,41.582,41.844,41.582
		C64.952,885.989,83.688,867.466,83.688,844.407 M77.358,844.407c0,19.594-15.074,35.506-35.514,35.506
		c-20.421,0-35.505-15.912-35.505-35.506c0-19.611,15.026-35.523,35.505-35.523C62.381,808.883,77.358,824.795,77.358,844.407"/>
	<path fill="#19A9E1" d="M600.046,350.659c0,16.36-10.983,24.968-17.352,27.5c5.413,2.084,9.99,5.648,12.153,8.706
		c3.484,5.063,4.147,9.777,4.147,18.872v20.294h-24.91l-0.077-12.972c0-6.153,0.624-15.113-3.993-20.059
		c-3.603-3.682-9.037-4.44-17.956-4.44h-26.526v37.471h-24.676V322.75h56.85c12.505,0,21.891,0.429,29.856,4.987
		C595.431,332.352,600.046,339.091,600.046,350.659"/>
	<polygon fill="#12B0E6" points="483.747,426.031 401.249,426.031 401.249,322.75 483.747,322.75 483.747,344.35 426.012,344.35 
		426.012,362.89 482.316,362.89 482.316,384.119 426.012,384.041 426.012,404.705 483.747,404.705 	"/>
	<polygon fill="#4ABAEB" points="382.863,426.031 357.574,426.031 357.438,345.246 321.681,426.031 300.024,426.031 264.042,345.07 
		264.042,426.031 213.844,426.031 204.369,403.03 152.923,403.03 143.43,426.031 116.562,426.031 160.733,322.75 197.455,322.75 
		239.415,420.616 239.415,322.75 279.798,322.75 312.07,392.883 341.74,322.75 382.863,322.75 	"/>
	<path fill="#FFFFFF" d="M567.736,365.189c-3.35,1.928-7.361,2.103-12.172,2.103h-30.032V344.33h30.402
		c4.342,0,8.861,0.156,11.763,1.812c3.194,1.558,5.142,4.752,5.142,9.134C572.839,359.793,570.951,363.397,567.736,365.189"/>
	<polygon fill="#FFFFFF" points="195.478,381.509 178.563,340.376 161.737,381.509 	"/>
</g>
</svg>
